<?xml version="1.0" encoding="UTF-8"?>
<svg id="Layer_2" data-name="Layer 2" xmlns="http://www.w3.org/2000/svg" viewBox="0 0 46.98 44.4">
  <defs>
    <style>
      .cls-1 {
        fill: #ed1c24;
      }
    </style>
  </defs>
  <g id="Layer_9" data-name="Layer 9">
    <path class="cls-1" d="m37.86,5.11c-1.62,4.42-.63,7.79-1.53,11.93-1.83,5.35-5.29,6.17-9.72,6.05l-.09-17.64s.43-2.39,1.36-2.81c.94-.43,5.03-.85,5.03-.85l.09-1.45H13.98l.09,1.45s4.09.43,5.03.85c.94.43,1.36,2.81,1.36,2.81l-.09,17.64c-4.42.12-7.89-.7-9.72-6.05-.91-4.14.09-7.51-1.53-11.93C7.31.7,3.23,0,0,0v1.45c8.81-.32-6.31,23.96,20.54,24.03,0,0-.17,14.23-.34,15.34-.7,2.15-4.81,2.19-6.14,2.39v1.19h18.86v-1.19c-1.33-.2-5.44-.24-6.14-2.39-.17-1.11-.34-15.34-.34-15.34,26.85-.07,11.72-24.35,20.54-24.03V0c-3.23,0-7.31.7-9.12,5.11Z"/>
  </g>
</svg>